<svg xmlns="http://www.w3.org/2000/svg" xmlns:xlink="http://www.w3.org/1999/xlink" width="1080" zoomAndPan="magnify" viewBox="0 0 810 809.999993" height="1080" preserveAspectRatio="xMidYMid meet" version="1.2"><defs><clipPath id="3e11aacd0b"><path d="M 82.5 0 L 727.5 0 C 773.0625 0 810 36.9375 810 82.5 L 810 727.5 C 810 773.0625 773.0625 810 727.5 810 L 82.5 810 C 36.9375 810 0 773.0625 0 727.5 L 0 82.5 C 0 36.9375 36.9375 0 82.5 0 Z M 82.5 0 "/></clipPath></defs><g id="0cdd44cc2c"><g clip-rule="nonzero" clip-path="url(#3e11aacd0b)"><rect x="0" width="810" y="0" height="809.999993" style="fill:#000000;fill-opacity:1;stroke:none;"/></g><g style="fill:#ffffff;fill-opacity:1;"><g transform="translate(140.342927, 661.023092)"><path style="stroke:none" d="M 164.3125 -504.015625 L 164.3125 0 L 102.8125 0 L 102.8125 -504.015625 Z M 82.65625 -504.015625 L 82.65625 0 L 21.171875 0 L 21.171875 -504.015625 Z M 82.65625 -504.015625 "/></g></g><g style="fill:#ffffff;fill-opacity:1;"><g transform="translate(325.816021, 661.023092)"><path style="stroke:none" d="M 174.890625 -323.078125 C 180.265625 -323.078125 184.882812 -325.007812 188.75 -328.875 C 192.613281 -332.738281 194.546875 -337.359375 194.546875 -342.734375 C 194.546875 -348.109375 192.613281 -352.640625 188.75 -356.328125 C 184.882812 -360.023438 180.265625 -361.875 174.890625 -361.875 L 155.734375 -361.875 L 155.734375 -323.078125 Z M 155.734375 -180.9375 L 155.734375 -143.140625 L 202.609375 -143.140625 C 207.984375 -143.140625 212.519531 -144.988281 216.21875 -148.6875 C 219.914062 -152.382812 221.765625 -156.75 221.765625 -161.78125 C 221.765625 -167.164062 219.914062 -171.703125 216.21875 -175.390625 C 212.519531 -179.085938 207.984375 -180.9375 202.609375 -180.9375 Z M 94.25 -422.859375 L 174.890625 -422.859375 C 197.066406 -422.859375 216.050781 -415.046875 231.84375 -399.421875 C 247.632812 -383.804688 255.53125 -364.910156 255.53125 -342.734375 C 255.53125 -320.554688 247.632812 -301.570312 231.84375 -285.78125 C 216.050781 -269.988281 197.066406 -261.921875 174.890625 -261.578125 L 94.25 -261.578125 Z M 202.609375 -242.4375 C 224.785156 -242.4375 243.769531 -234.535156 259.5625 -218.734375 C 275.351562 -202.941406 283.25 -183.957031 283.25 -161.78125 C 283.25 -139.945312 275.351562 -121.132812 259.5625 -105.34375 C 243.769531 -89.882812 224.957031 -82.15625 203.125 -82.15625 L 202.609375 -81.65625 L 94.25 -81.65625 L 94.25 -242.4375 Z M 74.09375 -442.53125 L 74.09375 -61.484375 L 203.125 -61.484375 C 230.675781 -61.484375 254.28125 -71.226562 273.9375 -90.71875 C 293.59375 -110.207031 303.421875 -133.726562 303.421875 -161.28125 C 303.421875 -184.132812 296.695312 -204.296875 283.25 -221.765625 C 280.226562 -225.460938 277.207031 -228.988281 274.1875 -232.34375 C 261.082031 -245.113281 246.296875 -253.6875 229.828125 -258.0625 C 235.878906 -262.09375 241.425781 -266.625 246.46875 -271.65625 C 257.550781 -282.75 265.445312 -295.179688 270.15625 -308.953125 C 273.84375 -319.367188 275.6875 -330.628906 275.6875 -342.734375 C 275.6875 -370.285156 265.941406 -393.804688 246.453125 -413.296875 C 226.972656 -432.785156 203.285156 -442.53125 175.390625 -442.53125 Z M 175.390625 -504.015625 C 220.085938 -504.015625 258.226562 -488.222656 289.8125 -456.640625 C 321.394531 -425.054688 337.1875 -387.085938 337.1875 -342.734375 C 337.1875 -316.859375 331.976562 -293.335938 321.5625 -272.171875 C 350.457031 -241.253906 364.90625 -204.289062 364.90625 -161.28125 C 364.90625 -116.925781 349.113281 -78.957031 317.53125 -47.375 C 285.945312 -15.789062 247.8125 0 203.125 0 L 12.59375 0 L 12.59375 -504.015625 Z M 175.390625 -504.015625 "/></g></g></g></svg>